<svg xmlns="http://www.w3.org/2000/svg" width="24" height="24" fill="none"><g clip-path="url(#a)"><path fill="#383634" d="m11.253 4.818 8.132 8.132a3.999 3.999 0 0 1 0 5.657 3.999 3.999 0 0 1-5.657 0l-8.839-8.84a2.5 2.5 0 0 1 3.536-3.535l7.424 7.425a1.003 1.003 0 0 1 0 1.414 1.003 1.003 0 0 1-1.414 0L7.718 8.354l-1.061 1.06 6.717 6.718a2.5 2.5 0 0 0 3.536-3.536L9.485 5.172a3.999 3.999 0 0 0-5.657 0 3.999 3.999 0 0 0 0 5.656l8.84 8.84a5.497 5.497 0 0 0 7.777 0 5.497 5.497 0 0 0 0-7.779l-8.131-8.132-1.061 1.061Z"/></g><defs><clipPath id="a"><path fill="#fff" d="M0 0h24v24H0z"/></clipPath></defs></svg>